<svg width="362" height="117" viewBox="0 0 362 117" fill="none" xmlns="http://www.w3.org/2000/svg">
<rect width="362" height="117" rx="30" fill="#808080"/>
<path d="M146.379 96.5576L143.542 105H141.553L145.272 95.0469H146.543L146.379 96.5576ZM148.751 105L145.901 96.5576L145.73 95.0469H147.008L150.748 105H148.751ZM148.622 101.302V102.785H143.283V101.302H148.622ZM156.173 103.428V94.5H157.991V105H156.35L156.173 103.428ZM151.422 101.391V101.247C151.422 100.682 151.486 100.169 151.613 99.709C151.745 99.2441 151.937 98.8454 152.187 98.5127C152.438 98.18 152.741 97.9225 153.097 97.7402C153.457 97.5579 153.864 97.4668 154.32 97.4668C154.762 97.4668 155.147 97.5557 155.475 97.7334C155.808 97.9111 156.091 98.1641 156.323 98.4922C156.56 98.8203 156.749 99.21 156.891 99.6611C157.032 100.108 157.134 100.6 157.198 101.138V101.527C157.134 102.051 157.032 102.532 156.891 102.97C156.749 103.407 156.56 103.79 156.323 104.118C156.091 104.442 155.808 104.692 155.475 104.87C155.143 105.048 154.753 105.137 154.307 105.137C153.855 105.137 153.45 105.043 153.09 104.856C152.734 104.67 152.431 104.408 152.181 104.07C151.934 103.733 151.745 103.337 151.613 102.881C151.486 102.425 151.422 101.928 151.422 101.391ZM153.233 101.247V101.391C153.233 101.71 153.261 102.008 153.315 102.286C153.37 102.564 153.459 102.81 153.582 103.024C153.705 103.234 153.862 103.398 154.054 103.517C154.25 103.635 154.487 103.694 154.765 103.694C155.12 103.694 155.412 103.617 155.64 103.462C155.872 103.302 156.052 103.086 156.18 102.812C156.307 102.535 156.389 102.222 156.426 101.876V100.803C156.407 100.529 156.36 100.276 156.282 100.044C156.209 99.8115 156.104 99.611 155.968 99.4424C155.836 99.2738 155.671 99.1416 155.475 99.0459C155.28 98.9502 155.047 98.9023 154.778 98.9023C154.5 98.9023 154.263 98.9639 154.067 99.0869C153.871 99.2054 153.712 99.3717 153.589 99.5859C153.466 99.8001 153.375 100.049 153.315 100.331C153.261 100.614 153.233 100.919 153.233 101.247ZM164.161 103.428V94.5H165.98V105H164.339L164.161 103.428ZM159.41 101.391V101.247C159.41 100.682 159.474 100.169 159.602 99.709C159.734 99.2441 159.925 98.8454 160.176 98.5127C160.427 98.18 160.73 97.9225 161.085 97.7402C161.445 97.5579 161.853 97.4668 162.309 97.4668C162.751 97.4668 163.136 97.5557 163.464 97.7334C163.797 97.9111 164.079 98.1641 164.312 98.4922C164.549 98.8203 164.738 99.21 164.879 99.6611C165.02 100.108 165.123 100.6 165.187 101.138V101.527C165.123 102.051 165.02 102.532 164.879 102.97C164.738 103.407 164.549 103.79 164.312 104.118C164.079 104.442 163.797 104.692 163.464 104.87C163.131 105.048 162.742 105.137 162.295 105.137C161.844 105.137 161.438 105.043 161.078 104.856C160.723 104.67 160.42 104.408 160.169 104.07C159.923 103.733 159.734 103.337 159.602 102.881C159.474 102.425 159.41 101.928 159.41 101.391ZM161.222 101.247V101.391C161.222 101.71 161.249 102.008 161.304 102.286C161.359 102.564 161.448 102.81 161.571 103.024C161.694 103.234 161.851 103.398 162.042 103.517C162.238 103.635 162.475 103.694 162.753 103.694C163.109 103.694 163.4 103.617 163.628 103.462C163.861 103.302 164.041 103.086 164.168 102.812C164.296 102.535 164.378 102.222 164.414 101.876V100.803C164.396 100.529 164.348 100.276 164.271 100.044C164.198 99.8115 164.093 99.611 163.956 99.4424C163.824 99.2738 163.66 99.1416 163.464 99.0459C163.268 98.9502 163.036 98.9023 162.767 98.9023C162.489 98.9023 162.252 98.9639 162.056 99.0869C161.86 99.2054 161.7 99.3717 161.577 99.5859C161.454 99.8001 161.363 100.049 161.304 100.331C161.249 100.614 161.222 100.919 161.222 101.247ZM173.44 95.0469V105H171.56V95.0469H173.44ZM177.231 99.1211V105H175.426V97.6035H177.128L177.231 99.1211ZM176.964 101.035H176.411C176.411 100.52 176.472 100.046 176.595 99.6133C176.723 99.1803 176.91 98.8044 177.156 98.4854C177.402 98.1618 177.705 97.9111 178.065 97.7334C178.43 97.5557 178.851 97.4668 179.33 97.4668C179.662 97.4668 179.968 97.5169 180.246 97.6172C180.524 97.7129 180.763 97.8656 180.963 98.0752C181.168 98.2803 181.326 98.5492 181.435 98.8818C181.544 99.21 181.599 99.6042 181.599 100.064V105H179.794V100.249C179.794 99.9027 179.744 99.6315 179.644 99.4355C179.548 99.2396 179.409 99.1029 179.227 99.0254C179.045 98.9434 178.826 98.9023 178.571 98.9023C178.288 98.9023 178.044 98.9593 177.839 99.0732C177.639 99.1826 177.472 99.3353 177.34 99.5312C177.213 99.7272 177.117 99.9528 177.053 100.208C176.994 100.463 176.964 100.739 176.964 101.035ZM181.462 100.7L180.717 100.837C180.722 100.372 180.786 99.9368 180.909 99.5312C181.032 99.1211 181.212 98.7633 181.449 98.458C181.69 98.1481 181.989 97.9066 182.344 97.7334C182.704 97.5557 183.119 97.4668 183.588 97.4668C183.953 97.4668 184.281 97.5192 184.573 97.624C184.869 97.7243 185.122 97.8861 185.332 98.1094C185.541 98.3281 185.701 98.613 185.81 98.9639C185.924 99.3148 185.981 99.7432 185.981 100.249V105H184.163V100.242C184.163 99.8822 184.112 99.6064 184.012 99.415C183.917 99.2236 183.778 99.0915 183.595 99.0186C183.413 98.9411 183.199 98.9023 182.953 98.9023C182.702 98.9023 182.483 98.9502 182.296 99.0459C182.114 99.137 181.959 99.2646 181.832 99.4287C181.708 99.5928 181.615 99.7842 181.551 100.003C181.492 100.217 181.462 100.45 181.462 100.7ZM191.775 103.428V100.017C191.775 99.766 191.732 99.5495 191.645 99.3672C191.559 99.1849 191.427 99.0436 191.249 98.9434C191.071 98.8431 190.846 98.793 190.572 98.793C190.331 98.793 190.119 98.834 189.936 98.916C189.759 98.998 189.622 99.1143 189.526 99.2646C189.431 99.4105 189.383 99.5791 189.383 99.7705H187.571C187.571 99.4652 187.644 99.1758 187.79 98.9023C187.936 98.6243 188.143 98.3783 188.412 98.1641C188.685 97.9453 189.011 97.7744 189.39 97.6514C189.772 97.5283 190.201 97.4668 190.675 97.4668C191.235 97.4668 191.734 97.5625 192.172 97.7539C192.614 97.9408 192.96 98.2233 193.211 98.6016C193.466 98.9798 193.594 99.4561 193.594 100.03V103.257C193.594 103.626 193.616 103.943 193.662 104.207C193.712 104.467 193.785 104.692 193.881 104.884V105H192.042C191.955 104.813 191.889 104.576 191.844 104.289C191.798 103.997 191.775 103.71 191.775 103.428ZM192.028 100.495L192.042 101.568H190.9C190.618 101.568 190.369 101.598 190.155 101.657C189.941 101.712 189.766 101.794 189.629 101.903C189.492 102.008 189.39 102.136 189.321 102.286C189.253 102.432 189.219 102.598 189.219 102.785C189.219 102.967 189.26 103.132 189.342 103.277C189.428 103.423 189.551 103.539 189.711 103.626C189.875 103.708 190.066 103.749 190.285 103.749C190.604 103.749 190.882 103.685 191.119 103.558C191.356 103.425 191.541 103.266 191.673 103.079C191.805 102.892 191.876 102.715 191.885 102.546L192.404 103.325C192.34 103.512 192.245 103.71 192.117 103.92C191.989 104.13 191.825 104.326 191.625 104.508C191.424 104.69 191.183 104.84 190.9 104.959C190.618 105.077 190.29 105.137 189.916 105.137C189.437 105.137 189.009 105.041 188.631 104.85C188.253 104.658 187.954 104.396 187.735 104.063C187.517 103.731 187.407 103.353 187.407 102.929C187.407 102.537 187.48 102.19 187.626 101.89C187.772 101.589 187.988 101.336 188.275 101.131C188.562 100.921 188.918 100.764 189.342 100.659C189.77 100.55 190.26 100.495 190.811 100.495H192.028ZM200.024 97.6035H201.664V104.774C201.664 105.444 201.519 106.012 201.227 106.477C200.94 106.946 200.536 107.301 200.017 107.543C199.497 107.789 198.894 107.912 198.205 107.912C197.909 107.912 197.588 107.871 197.242 107.789C196.9 107.707 196.569 107.577 196.25 107.399C195.936 107.226 195.674 107.001 195.464 106.723L196.278 105.656C196.524 105.943 196.802 106.16 197.112 106.306C197.422 106.456 197.756 106.531 198.117 106.531C198.481 106.531 198.791 106.463 199.046 106.326C199.306 106.194 199.504 105.998 199.641 105.738C199.782 105.483 199.853 105.169 199.853 104.795V99.292L200.024 97.6035ZM195.027 101.391V101.247C195.027 100.682 195.095 100.169 195.232 99.709C195.368 99.2441 195.564 98.8454 195.82 98.5127C196.079 98.18 196.392 97.9225 196.756 97.7402C197.125 97.5579 197.54 97.4668 198 97.4668C198.488 97.4668 198.898 97.5557 199.231 97.7334C199.568 97.9111 199.846 98.1641 200.065 98.4922C200.288 98.8203 200.461 99.21 200.584 99.6611C200.712 100.108 200.81 100.6 200.878 101.138V101.527C200.814 102.051 200.712 102.532 200.571 102.97C200.434 103.407 200.252 103.79 200.024 104.118C199.796 104.442 199.513 104.692 199.176 104.87C198.839 105.048 198.442 105.137 197.987 105.137C197.531 105.137 197.121 105.043 196.756 104.856C196.392 104.67 196.079 104.408 195.82 104.07C195.564 103.733 195.368 103.337 195.232 102.881C195.095 102.425 195.027 101.928 195.027 101.391ZM196.831 101.247V101.391C196.831 101.71 196.863 102.008 196.927 102.286C196.991 102.564 197.089 102.81 197.221 103.024C197.353 103.234 197.519 103.398 197.72 103.517C197.921 103.635 198.16 103.694 198.438 103.694C198.811 103.694 199.117 103.617 199.354 103.462C199.595 103.302 199.778 103.086 199.901 102.812C200.028 102.535 200.11 102.222 200.147 101.876V100.803C200.124 100.529 200.074 100.276 199.996 100.044C199.923 99.8115 199.821 99.611 199.689 99.4424C199.557 99.2738 199.388 99.1416 199.183 99.0459C198.978 98.9502 198.734 98.9023 198.451 98.9023C198.178 98.9023 197.939 98.9639 197.734 99.0869C197.529 99.2054 197.36 99.3717 197.228 99.5859C197.096 99.8001 196.995 100.049 196.927 100.331C196.863 100.614 196.831 100.919 196.831 101.247ZM206.714 105.137C206.153 105.137 205.649 105.046 205.203 104.863C204.756 104.681 204.376 104.428 204.061 104.104C203.751 103.776 203.512 103.396 203.343 102.963C203.179 102.525 203.097 102.056 203.097 101.555V101.281C203.097 100.712 203.179 100.194 203.343 99.7295C203.508 99.2601 203.74 98.8568 204.041 98.5195C204.342 98.1823 204.702 97.9225 205.121 97.7402C205.54 97.5579 206.003 97.4668 206.508 97.4668C207.033 97.4668 207.495 97.5557 207.896 97.7334C208.297 97.9066 208.632 98.1527 208.901 98.4717C209.17 98.7907 209.373 99.1735 209.509 99.6201C209.646 100.062 209.715 100.552 209.715 101.09V101.849H203.918V100.604H207.937V100.468C207.928 100.181 207.873 99.9186 207.773 99.6816C207.673 99.4401 207.518 99.2487 207.308 99.1074C207.099 98.9616 206.828 98.8887 206.495 98.8887C206.226 98.8887 205.991 98.9479 205.791 99.0664C205.595 99.1803 205.431 99.3444 205.299 99.5586C205.171 99.7682 205.075 100.019 205.011 100.311C204.948 100.602 204.916 100.926 204.916 101.281V101.555C204.916 101.865 204.957 102.152 205.039 102.416C205.125 102.68 205.251 102.91 205.415 103.106C205.583 103.298 205.784 103.448 206.016 103.558C206.253 103.662 206.522 103.715 206.823 103.715C207.201 103.715 207.543 103.642 207.848 103.496C208.158 103.346 208.427 103.125 208.655 102.833L209.564 103.776C209.409 104.004 209.2 104.223 208.935 104.433C208.675 104.642 208.361 104.813 207.992 104.945C207.623 105.073 207.197 105.137 206.714 105.137Z" fill="white"/>
<ellipse cx="176.839" cy="53" rx="31.9871" ry="30.75" stroke="#33363F" stroke-width="2"/>
<path d="M176.839 63.25L176.839 42.75" stroke="#33363F" stroke-width="2" stroke-linecap="square"/>
<path d="M187.501 53L166.177 53" stroke="#33363F" stroke-width="2" stroke-linecap="square"/>
</svg>
