<svg width="35" height="35" viewBox="0 0 35 35" fill="none" xmlns="http://www.w3.org/2000/svg">
<path fill-rule="evenodd" clip-rule="evenodd" d="M21.4219 5.32918C20.3196 4.7353 19.0649 4.39348 17.7384 4.37572C17.6849 4.375 17.6233 4.375 17.5 4.375C17.3767 4.375 17.3151 4.375 17.2616 4.37572C13.2672 4.42921 9.92442 7.4211 9.43015 11.3852C9.42352 11.4383 9.41672 11.4995 9.40312 11.6219L9.40311 11.6221L9.03589 14.927L9.03589 14.927C8.94327 15.7606 8.89695 16.1774 8.8086 16.5832C8.68235 17.163 8.49198 17.727 8.241 18.2647C8.06536 18.6411 7.84958 19.0007 7.41804 19.7199L6.1924 21.7627C5.38664 23.1056 4.98376 23.7771 5.27099 24.2844C5.55822 24.7917 6.34127 24.7917 7.90738 24.7917H27.0926C28.6587 24.7917 29.4418 24.7917 29.729 24.2844C30.0162 23.7771 29.6134 23.1056 28.8076 21.7627L27.582 19.7199L27.5819 19.7199C27.1504 19.0007 26.9346 18.6411 26.759 18.2647C26.508 17.727 26.3177 17.163 26.1914 16.5832C26.1031 16.1774 26.0567 15.7606 25.9641 14.927L25.9343 14.6584C22.8134 14.4943 20.3333 11.9118 20.3333 8.75C20.3333 7.47544 20.7364 6.295 21.4219 5.32918ZM23.7592 7.23165C24.7228 8.37849 25.3728 9.80454 25.5699 11.3852C25.5759 11.4339 25.5821 11.4894 25.5936 11.5925C24.2989 11.2947 23.3333 10.1351 23.3333 8.75C23.3333 8.19378 23.489 7.67393 23.7592 7.23165Z" fill="#222222"/>
<path d="M13.125 24.7917C13.125 25.3662 13.2382 25.9351 13.458 26.4659C13.6779 26.9967 14.0002 27.479 14.4064 27.8852C14.8127 28.2915 15.295 28.6138 15.8258 28.8336C16.3566 29.0535 16.9255 29.1667 17.5 29.1667C18.0745 29.1667 18.6434 29.0535 19.1742 28.8336C19.705 28.6138 20.1873 28.2915 20.5936 27.8852C20.9998 27.479 21.3221 26.9967 21.542 26.4659C21.7618 25.9351 21.875 25.3662 21.875 24.7917L17.5 24.7917H13.125Z" fill="#222222"/>
<circle cx="26.25" cy="8.75001" r="3.41667" fill="#222222" stroke="#222222"/>
</svg>
