<svg width="35" height="35" viewBox="0 0 35 35" fill="none" xmlns="http://www.w3.org/2000/svg">
<path d="M4.375 14.3706C4.375 12.8773 5.58558 11.6667 7.0789 11.6667V11.6667C8.10306 11.6667 9.03932 11.088 9.49734 10.172L10.6944 7.77779C11.1012 6.96433 11.3045 6.5576 11.6341 6.28718C11.772 6.17408 11.9243 6.07991 12.0872 6.00719C12.4764 5.83334 12.9312 5.83334 13.8406 5.83334H21.1594C22.0688 5.83334 22.5236 5.83334 22.9128 6.00719C23.0757 6.07991 23.228 6.17408 23.3659 6.28718C23.6955 6.5576 23.8988 6.96433 24.3056 7.77779L25.5027 10.172C25.9607 11.088 26.8969 11.6667 27.9211 11.6667V11.6667C29.4144 11.6667 30.625 12.8773 30.625 14.3706V23.1667C30.625 25.9951 30.625 27.4093 29.7463 28.288C28.8676 29.1667 27.4534 29.1667 24.625 29.1667H10.375C7.54657 29.1667 6.13236 29.1667 5.25368 28.288C4.375 27.4093 4.375 25.9951 4.375 23.1667V14.3706Z" stroke="#222222" stroke-width="2"/>
<circle cx="17.5" cy="18.9583" r="4.83333" stroke="#222222" stroke-width="2"/>
</svg>
