<svg width="45" height="44" viewBox="0 0 45 44" fill="none" xmlns="http://www.w3.org/2000/svg">
<ellipse cx="22.5" cy="22" rx="22.5" ry="22" fill="#D9D9D9"/>
<path d="M16.1392 28.7764H17.4921L26.7721 19.7025L25.4193 18.3797L16.1392 27.4536V28.7764ZM14.2405 30.6329V26.6878L26.7721 14.4578C26.962 14.2876 27.1716 14.1561 27.4011 14.0633C27.6305 13.9705 27.8718 13.924 28.125 13.924C28.3781 13.924 28.6234 13.9705 28.8607 14.0633C29.0981 14.1561 29.3038 14.2953 29.4778 14.481L30.7832 15.7806C30.9731 15.9508 31.1115 16.1519 31.1985 16.384C31.2856 16.616 31.3291 16.8481 31.3291 17.0802C31.3291 17.3277 31.2856 17.5636 31.1985 17.788C31.1115 18.0123 30.9731 18.2173 30.7832 18.4029L18.2753 30.6329H14.2405ZM26.0838 19.0527L25.4193 18.3797L26.7721 19.7025L26.0838 19.0527Z" fill="#1D1B20"/>
</svg>
