<svg width="128" height="54" viewBox="0 0 128 54" fill="none" xmlns="http://www.w3.org/2000/svg">
<g filter="url(#filter0_dd_65_1459)">
<g clip-path="url(#clip0_65_1459)">
<rect x="11" y="7" width="105.398" height="31.9184" rx="15.9592" fill="#ECE6F0"/>
<path d="M22.6989 19.9592V17.9592H36.6989V19.9592H22.6989ZM22.6989 23.9592V21.9592H36.6989V23.9592H22.6989ZM22.6989 27.9592V25.9592H36.6989V27.9592H22.6989ZM19.6989 19.9592C19.4156 19.9592 19.1781 19.8633 18.9864 19.6717C18.7947 19.48 18.6989 19.2425 18.6989 18.9592C18.6989 18.6758 18.7947 18.4383 18.9864 18.2467C19.1781 18.055 19.4156 17.9592 19.6989 17.9592C19.9822 17.9592 20.2197 18.055 20.4114 18.2467C20.6031 18.4383 20.6989 18.6758 20.6989 18.9592C20.6989 19.2425 20.6031 19.48 20.4114 19.6717C20.2197 19.8633 19.9822 19.9592 19.6989 19.9592ZM19.6989 23.9592C19.4156 23.9592 19.1781 23.8633 18.9864 23.6717C18.7947 23.48 18.6989 23.2425 18.6989 22.9592C18.6989 22.6758 18.7947 22.4383 18.9864 22.2467C19.1781 22.055 19.4156 21.9592 19.6989 21.9592C19.9822 21.9592 20.2197 22.055 20.4114 22.2467C20.6031 22.4383 20.6989 22.6758 20.6989 22.9592C20.6989 23.2425 20.6031 23.48 20.4114 23.6717C20.2197 23.8633 19.9822 23.9592 19.6989 23.9592ZM19.6989 27.9592C19.4156 27.9592 19.1781 27.8633 18.9864 27.6717C18.7947 27.48 18.6989 27.2425 18.6989 26.9592C18.6989 26.6758 18.7947 26.4383 18.9864 26.2467C19.1781 26.055 19.4156 25.9592 19.6989 25.9592C19.9822 25.9592 20.2197 26.055 20.4114 26.2467C20.6031 26.4383 20.6989 26.6758 20.6989 26.9592C20.6989 27.2425 20.6031 27.48 20.4114 27.6717C20.2197 27.8633 19.9822 27.9592 19.6989 27.9592Z" fill="#65558F"/>
<path d="M55.6261 25.7238L57.6085 18.006H58.6475L58.5313 19.9953L56.4122 27.9592H55.3321L55.6261 25.7238ZM54.1427 18.006L55.7491 25.6623L55.8927 27.9592H54.7442L52.4405 18.006H54.1427ZM60.8966 25.6418L62.4825 18.006H64.1915L61.8878 27.9592H60.7393L60.8966 25.6418ZM59.0509 18.006L61.0128 25.7443L61.2999 27.9592H60.2198L58.1349 19.9953L58.0255 18.006H59.0509ZM69.3364 26.4758V22.9484C69.3364 22.6841 69.2886 22.4562 69.1929 22.2648C69.0972 22.0734 68.9513 21.9253 68.7554 21.8205C68.564 21.7157 68.3224 21.6633 68.0308 21.6633C67.7619 21.6633 67.5294 21.7088 67.3335 21.8C67.1375 21.8911 66.9849 22.0142 66.8755 22.1691C66.7661 22.3241 66.7114 22.4995 66.7114 22.6955H65.0708C65.0708 22.4038 65.1414 22.1213 65.2827 21.8478C65.424 21.5744 65.6291 21.3306 65.8979 21.1164C66.1668 20.9022 66.4881 20.7336 66.8618 20.6105C67.2355 20.4875 67.6548 20.426 68.1196 20.426C68.6756 20.426 69.1678 20.5194 69.5962 20.7062C70.0291 20.8931 70.3686 21.1756 70.6147 21.5539C70.8654 21.9276 70.9907 22.397 70.9907 22.9621V26.2502C70.9907 26.5874 71.0135 26.8905 71.0591 27.1594C71.1092 27.4237 71.1798 27.6538 71.271 27.8498V27.9592H69.5825C69.505 27.7814 69.4435 27.5558 69.3979 27.2824C69.3569 27.0044 69.3364 26.7355 69.3364 26.4758ZM69.5757 23.4611L69.5893 24.4797H68.4067C68.1014 24.4797 67.8325 24.5093 67.6001 24.5685C67.3677 24.6232 67.174 24.7053 67.019 24.8146C66.8641 24.924 66.7479 25.0562 66.6704 25.2111C66.5929 25.3661 66.5542 25.5415 66.5542 25.7375C66.5542 25.9335 66.5998 26.1135 66.6909 26.2775C66.7821 26.437 66.9142 26.5624 67.0874 26.6535C67.2651 26.7446 67.4793 26.7902 67.73 26.7902C68.0672 26.7902 68.3612 26.7219 68.6118 26.5851C68.867 26.4439 69.0675 26.273 69.2134 26.0724C69.3592 25.8674 69.4367 25.6737 69.4458 25.4914L69.979 26.2228C69.9243 26.4097 69.8309 26.6102 69.6987 26.8244C69.5666 27.0386 69.3934 27.2437 69.1792 27.4396C68.9696 27.631 68.7166 27.7883 68.4204 27.9113C68.1287 28.0344 67.7915 28.0959 67.4087 28.0959C66.9256 28.0959 66.4949 28.0002 66.1167 27.8088C65.7384 27.6128 65.4422 27.3508 65.228 27.0226C65.0138 26.69 64.9067 26.314 64.9067 25.8947C64.9067 25.5028 64.9796 25.1564 65.1255 24.8557C65.2759 24.5503 65.4946 24.2951 65.7817 24.09C66.0734 23.8849 66.4289 23.73 66.8481 23.6252C67.2674 23.5158 67.7459 23.4611 68.2837 23.4611H69.5757ZM74.577 20.5627V27.9592H72.9227V20.5627H74.577ZM72.8134 18.6213C72.8134 18.3706 72.8954 18.1633 73.0595 17.9992C73.2281 17.8306 73.4605 17.7463 73.7567 17.7463C74.0484 17.7463 74.2785 17.8306 74.4472 17.9992C74.6158 18.1633 74.7001 18.3706 74.7001 18.6213C74.7001 18.8674 74.6158 19.0724 74.4472 19.2365C74.2785 19.4006 74.0484 19.4826 73.7567 19.4826C73.4605 19.4826 73.2281 19.4006 73.0595 19.2365C72.8954 19.0724 72.8134 18.8674 72.8134 18.6213ZM79.8724 20.5627V21.7658H75.7024V20.5627H79.8724ZM76.9056 18.7512H78.553V25.9152C78.553 26.1431 78.5849 26.3185 78.6487 26.4416C78.7171 26.5601 78.8105 26.6398 78.929 26.6808C79.0475 26.7219 79.1865 26.7424 79.346 26.7424C79.4599 26.7424 79.5693 26.7355 79.6741 26.7219C79.7789 26.7082 79.8632 26.6945 79.927 26.6808L79.9339 27.9387C79.7972 27.9797 79.6377 28.0161 79.4554 28.048C79.2776 28.0799 79.0725 28.0959 78.8401 28.0959C78.4619 28.0959 78.1269 28.0298 77.8352 27.8976C77.5436 27.7609 77.3157 27.5399 77.1516 27.2346C76.9876 26.9292 76.9056 26.5236 76.9056 26.0178V18.7512ZM91.2286 26.5988V27.9592H86.2315V26.5988H91.2286ZM86.71 18.006V27.9592H84.9942V18.006H86.71ZM94.2544 20.5627V27.9592H92.6001V20.5627H94.2544ZM92.4907 18.6213C92.4907 18.3706 92.5727 18.1633 92.7368 17.9992C92.9054 17.8306 93.1378 17.7463 93.4341 17.7463C93.7257 17.7463 93.9559 17.8306 94.1245 17.9992C94.2931 18.1633 94.3774 18.3706 94.3774 18.6213C94.3774 18.8674 94.2931 19.0724 94.1245 19.2365C93.9559 19.4006 93.7257 19.4826 93.4341 19.4826C93.1378 19.4826 92.9054 19.4006 92.7368 19.2365C92.5727 19.0724 92.4907 18.8674 92.4907 18.6213ZM100.308 25.9562C100.308 25.7922 100.267 25.6441 100.185 25.5119C100.103 25.3752 99.9462 25.2521 99.7138 25.1428C99.4859 25.0334 99.1487 24.9331 98.702 24.842C98.3101 24.7554 97.9501 24.6529 97.622 24.5344C97.2984 24.4113 97.0204 24.2632 96.788 24.09C96.5556 23.9168 96.3755 23.7118 96.2479 23.4748C96.1203 23.2378 96.0565 22.9644 96.0565 22.6545C96.0565 22.3537 96.1226 22.0689 96.2548 21.8C96.3869 21.5311 96.5761 21.2941 96.8222 21.0891C97.0683 20.884 97.3668 20.7222 97.7177 20.6037C98.0731 20.4852 98.4696 20.426 98.9071 20.426C99.5269 20.426 100.058 20.5308 100.5 20.7404C100.947 20.9455 101.288 21.2258 101.525 21.5812C101.762 21.9321 101.881 22.3286 101.881 22.7707H100.233C100.233 22.5747 100.183 22.3924 100.083 22.2238C99.9872 22.0506 99.8414 21.9116 99.6454 21.8068C99.4494 21.6974 99.2033 21.6428 98.9071 21.6428C98.6246 21.6428 98.3899 21.6883 98.203 21.7795C98.0207 21.8661 97.884 21.98 97.7929 22.1213C97.7063 22.2626 97.663 22.4175 97.663 22.5861C97.663 22.7092 97.6858 22.8208 97.7313 22.9211C97.7815 23.0168 97.8635 23.1057 97.9774 23.1877C98.0914 23.2652 98.2463 23.3381 98.4423 23.4064C98.6428 23.4748 98.8934 23.5409 99.1942 23.6047C99.7593 23.7232 100.245 23.8758 100.65 24.0627C101.06 24.245 101.375 24.482 101.594 24.7736C101.812 25.0607 101.922 25.4253 101.922 25.8674C101.922 26.1955 101.851 26.4963 101.71 26.7697C101.573 27.0386 101.373 27.2733 101.108 27.4738C100.844 27.6698 100.527 27.8224 100.158 27.9318C99.7935 28.0412 99.3834 28.0959 98.9276 28.0959C98.2577 28.0959 97.6903 27.9774 97.2255 27.7404C96.7606 27.4989 96.4074 27.1913 96.1659 26.8176C95.9289 26.4393 95.8104 26.0474 95.8104 25.6418H97.4032C97.4214 25.9471 97.5058 26.1909 97.6561 26.3732C97.8111 26.551 98.0025 26.6808 98.2304 26.7629C98.4628 26.8404 98.702 26.8791 98.9481 26.8791C99.2444 26.8791 99.4927 26.8404 99.6933 26.7629C99.8938 26.6808 100.046 26.5715 100.151 26.4348C100.256 26.2935 100.308 26.134 100.308 25.9562ZM106.855 20.5627V21.7658H102.685V20.5627H106.855ZM103.888 18.7512H105.535V25.9152C105.535 26.1431 105.567 26.3185 105.631 26.4416C105.7 26.5601 105.793 26.6398 105.911 26.6808C106.03 26.7219 106.169 26.7424 106.328 26.7424C106.442 26.7424 106.552 26.7355 106.657 26.7219C106.761 26.7082 106.846 26.6945 106.909 26.6808L106.916 27.9387C106.78 27.9797 106.62 28.0161 106.438 28.048C106.26 28.0799 106.055 28.0959 105.823 28.0959C105.444 28.0959 105.109 28.0298 104.818 27.8976C104.526 27.7609 104.298 27.5399 104.134 27.2346C103.97 26.9292 103.888 26.5236 103.888 26.0178V18.7512Z" fill="#65558F"/>
</g>
</g>
<defs>
<filter id="filter0_dd_65_1459" x="0" y="0" width="127.398" height="53.9184" filterUnits="userSpaceOnUse" color-interpolation-filters="sRGB">
<feFlood flood-opacity="0" result="BackgroundImageFix"/>
<feColorMatrix in="SourceAlpha" type="matrix" values="0 0 0 0 0 0 0 0 0 0 0 0 0 0 0 0 0 0 127 0" result="hardAlpha"/>
<feOffset dy="1"/>
<feGaussianBlur stdDeviation="1.5"/>
<feColorMatrix type="matrix" values="0 0 0 0 0 0 0 0 0 0 0 0 0 0 0 0 0 0 0.3 0"/>
<feBlend mode="normal" in2="BackgroundImageFix" result="effect1_dropShadow_65_1459"/>
<feColorMatrix in="SourceAlpha" type="matrix" values="0 0 0 0 0 0 0 0 0 0 0 0 0 0 0 0 0 0 127 0" result="hardAlpha"/>
<feMorphology radius="3" operator="dilate" in="SourceAlpha" result="effect2_dropShadow_65_1459"/>
<feOffset dy="4"/>
<feGaussianBlur stdDeviation="4"/>
<feColorMatrix type="matrix" values="0 0 0 0 0 0 0 0 0 0 0 0 0 0 0 0 0 0 0.15 0"/>
<feBlend mode="normal" in2="effect1_dropShadow_65_1459" result="effect2_dropShadow_65_1459"/>
<feBlend mode="normal" in="SourceGraphic" in2="effect2_dropShadow_65_1459" result="shape"/>
</filter>
<clipPath id="clip0_65_1459">
<rect x="11" y="7" width="105.398" height="31.9184" rx="15.9592" fill="white"/>
</clipPath>
</defs>
</svg>
