<svg width="128" height="54" viewBox="0 0 128 54" fill="none" xmlns="http://www.w3.org/2000/svg">
<g filter="url(#filter0_dd_65_1456)">
<g clip-path="url(#clip0_65_1456)">
<rect x="11" y="7" width="105.398" height="31.9184" rx="15.9592" fill="#ECE6F0"/>
<g clip-path="url(#clip1_65_1456)">
<path d="M19.1989 30.9592V28.1842C19.1989 27.6175 19.3406 27.0925 19.6239 26.6092C19.9072 26.1258 20.2989 25.7592 20.7989 25.5092C21.0322 25.3925 21.2572 25.2842 21.4739 25.1842C21.7072 25.0842 21.9489 24.9925 22.1989 24.9092V30.9592H19.1989ZM23.1989 23.9592C22.3656 23.9592 21.6572 23.6675 21.0739 23.0842C20.4906 22.5008 20.1989 21.7925 20.1989 20.9592C20.1989 20.1258 20.4906 19.4175 21.0739 18.8342C21.6572 18.2508 22.3656 17.9592 23.1989 17.9592C24.0322 17.9592 24.7406 18.2508 25.3239 18.8342C25.9072 19.4175 26.1989 20.1258 26.1989 20.9592C26.1989 21.7925 25.9072 22.5008 25.3239 23.0842C24.7406 23.6675 24.0322 23.9592 23.1989 23.9592ZM23.1989 21.9592C23.4822 21.9592 23.7156 21.8675 23.8989 21.6842C24.0989 21.4842 24.1989 21.2425 24.1989 20.9592C24.1989 20.6758 24.0989 20.4425 23.8989 20.2592C23.7156 20.0592 23.4822 19.9592 23.1989 19.9592C22.9156 19.9592 22.6739 20.0592 22.4739 20.2592C22.2906 20.4425 22.1989 20.6758 22.1989 20.9592C22.1989 21.2425 22.2906 21.4842 22.4739 21.6842C22.6739 21.8675 22.9156 21.9592 23.1989 21.9592ZM23.1989 30.9592V28.1592C23.1989 27.5925 23.3406 27.0758 23.6239 26.6092C23.9239 26.1258 24.3156 25.7592 24.7989 25.5092C25.8322 24.9925 26.8822 24.6092 27.9489 24.3592C29.0156 24.0925 30.0989 23.9592 31.1989 23.9592C32.2989 23.9592 33.3822 24.0925 34.4489 24.3592C35.5156 24.6092 36.5656 24.9925 37.5989 25.5092C38.0822 25.7592 38.4656 26.1258 38.7489 26.6092C39.0489 27.0758 39.1989 27.5925 39.1989 28.1592V30.9592H23.1989ZM25.1989 28.9592H37.1989V28.1592C37.1989 27.9758 37.1489 27.8092 37.0489 27.6592C36.9656 27.5092 36.8489 27.3925 36.6989 27.3092C35.7989 26.8592 34.8906 26.5258 33.9739 26.3092C33.0572 26.0758 32.1322 25.9592 31.1989 25.9592C30.2656 25.9592 29.3406 26.0758 28.4239 26.3092C27.5072 26.5258 26.5989 26.8592 25.6989 27.3092C25.5489 27.3925 25.4239 27.5092 25.3239 27.6592C25.2406 27.8092 25.1989 27.9758 25.1989 28.1592V28.9592ZM31.1989 22.9592C30.0989 22.9592 29.1572 22.5675 28.3739 21.7842C27.5906 21.0008 27.1989 20.0592 27.1989 18.9592C27.1989 17.8592 27.5906 16.9175 28.3739 16.1342C29.1572 15.3508 30.0989 14.9592 31.1989 14.9592C32.2989 14.9592 33.2406 15.3508 34.0239 16.1342C34.8072 16.9175 35.1989 17.8592 35.1989 18.9592C35.1989 20.0592 34.8072 21.0008 34.0239 21.7842C33.2406 22.5675 32.2989 22.9592 31.1989 22.9592ZM31.1989 20.9592C31.7489 20.9592 32.2156 20.7675 32.5989 20.3842C32.9989 19.9842 33.1989 19.5092 33.1989 18.9592C33.1989 18.4092 32.9989 17.9425 32.5989 17.5592C32.2156 17.1592 31.7489 16.9592 31.1989 16.9592C30.6489 16.9592 30.1739 17.1592 29.7739 17.5592C29.3906 17.9425 29.1989 18.4092 29.1989 18.9592C29.1989 19.5092 29.3906 19.9842 29.7739 20.3842C30.1739 20.7675 30.6489 20.9592 31.1989 20.9592ZM39.1989 23.9592C38.3656 23.9592 37.6572 23.6675 37.0739 23.0842C36.4906 22.5008 36.1989 21.7925 36.1989 20.9592C36.1989 20.1258 36.4906 19.4175 37.0739 18.8342C37.6572 18.2508 38.3656 17.9592 39.1989 17.9592C40.0322 17.9592 40.7406 18.2508 41.3239 18.8342C41.9072 19.4175 42.1989 20.1258 42.1989 20.9592C42.1989 21.7925 41.9072 22.5008 41.3239 23.0842C40.7406 23.6675 40.0322 23.9592 39.1989 23.9592ZM39.1989 21.9592C39.4822 21.9592 39.7156 21.8675 39.8989 21.6842C40.0989 21.4842 40.1989 21.2425 40.1989 20.9592C40.1989 20.6758 40.0989 20.4425 39.8989 20.2592C39.7156 20.0592 39.4822 19.9592 39.1989 19.9592C38.9156 19.9592 38.6739 20.0592 38.4739 20.2592C38.2906 20.4425 38.1989 20.6758 38.1989 20.9592C38.1989 21.2425 38.2906 21.4842 38.4739 21.6842C38.6739 21.8675 38.9156 21.9592 39.1989 21.9592ZM40.1989 30.9592V24.9092C40.4489 24.9925 40.6822 25.0842 40.8989 25.1842C41.1322 25.2842 41.3656 25.3925 41.5989 25.5092C42.0989 25.7592 42.4906 26.1258 42.7739 26.6092C43.0572 27.0925 43.1989 27.6175 43.1989 28.1842V30.9592H40.1989Z" fill="#65558F"/>
</g>
<path d="M62.5778 24.7189H64.2868C64.2321 25.3706 64.0498 25.9517 63.7399 26.4621C63.43 26.968 62.9948 27.3667 62.4343 27.6584C61.8737 27.9501 61.1924 28.0959 60.3903 28.0959C59.7751 28.0959 59.2214 27.9865 58.7292 27.7678C58.237 27.5445 57.8155 27.23 57.4645 26.8244C57.1136 26.4142 56.8447 25.9198 56.6579 25.341C56.4756 24.7622 56.3845 24.1151 56.3845 23.3996V22.5724C56.3845 21.857 56.4779 21.2098 56.6647 20.631C56.8561 20.0523 57.1296 19.5578 57.485 19.1476C57.8405 18.7329 58.2666 18.4162 58.7634 18.1974C59.2647 17.9787 59.8275 17.8693 60.4518 17.8693C61.2448 17.8693 61.9147 18.0152 62.4616 18.3068C63.0085 18.5985 63.4323 19.0018 63.7331 19.5168C64.0384 20.0318 64.2253 20.6219 64.2936 21.2873H62.5847C62.5391 20.8589 62.4388 20.492 62.2839 20.1867C62.1335 19.8814 61.9102 19.6489 61.614 19.4894C61.3177 19.3254 60.9304 19.2433 60.4518 19.2433C60.0599 19.2433 59.7181 19.3163 59.4265 19.4621C59.1348 19.6079 58.891 19.8221 58.695 20.1047C58.499 20.3872 58.3509 20.7359 58.2507 21.1506C58.155 21.5607 58.1071 22.0301 58.1071 22.5588V23.3996C58.1071 23.9009 58.1504 24.3566 58.237 24.7668C58.3281 25.1724 58.4649 25.521 58.6472 25.8127C58.834 26.1043 59.071 26.3299 59.3581 26.4894C59.6452 26.6489 59.9893 26.7287 60.3903 26.7287C60.878 26.7287 61.2722 26.6512 61.5729 26.4963C61.8783 26.3413 62.1084 26.1157 62.2634 25.8195C62.4229 25.5187 62.5277 25.1519 62.5778 24.7189ZM67.4083 17.4592V27.9592H65.7677V17.4592H67.4083ZM67.1212 23.9875L66.588 23.9807C66.5925 23.4702 66.6632 22.9986 66.7999 22.5656C66.9412 22.1327 67.1371 21.7567 67.3878 21.4377C67.643 21.1141 67.9483 20.8657 68.3038 20.6926C68.6593 20.5148 69.0535 20.426 69.4864 20.426C69.851 20.426 70.1791 20.4761 70.4708 20.5764C70.767 20.6766 71.0222 20.8384 71.2364 21.0617C71.4506 21.2805 71.6124 21.5676 71.7218 21.923C71.8357 22.2739 71.8927 22.7023 71.8927 23.2082V27.9592H70.2384V23.1945C70.2384 22.8391 70.186 22.5565 70.0811 22.3469C69.9809 22.1372 69.8328 21.9868 69.6368 21.8957C69.4408 21.8 69.2016 21.7521 68.919 21.7521C68.6228 21.7521 68.3608 21.8114 68.1329 21.9299C67.9096 22.0484 67.7227 22.2101 67.5724 22.4152C67.422 22.6203 67.308 22.8573 67.2306 23.1262C67.1576 23.395 67.1212 23.6821 67.1212 23.9875ZM73.3462 24.343V24.1857C73.3462 23.6525 73.4237 23.1581 73.5786 22.7023C73.7335 22.242 73.9569 21.8433 74.2485 21.506C74.5447 21.1642 74.9048 20.8999 75.3286 20.7131C75.757 20.5217 76.2401 20.426 76.7778 20.426C77.3201 20.426 77.8032 20.5217 78.227 20.7131C78.6554 20.8999 79.0177 21.1642 79.314 21.506C79.6102 21.8433 79.8358 22.242 79.9907 22.7023C80.1457 23.1581 80.2231 23.6525 80.2231 24.1857V24.343C80.2231 24.8762 80.1457 25.3706 79.9907 25.8264C79.8358 26.2821 79.6102 26.6808 79.314 27.0226C79.0177 27.3599 78.6577 27.6242 78.2339 27.8156C77.81 28.0025 77.3293 28.0959 76.7915 28.0959C76.2492 28.0959 75.7638 28.0025 75.3354 27.8156C74.9116 27.6242 74.5516 27.3599 74.2554 27.0226C73.9591 26.6808 73.7335 26.2821 73.5786 25.8264C73.4237 25.3706 73.3462 24.8762 73.3462 24.343ZM74.9936 24.1857V24.343C74.9936 24.6756 75.0278 24.9901 75.0962 25.2863C75.1645 25.5825 75.2716 25.8423 75.4175 26.0656C75.5633 26.2889 75.7502 26.4644 75.978 26.592C76.2059 26.7196 76.477 26.7834 76.7915 26.7834C77.0968 26.7834 77.3612 26.7196 77.5845 26.592C77.8123 26.4644 77.9992 26.2889 78.145 26.0656C78.2908 25.8423 78.3979 25.5825 78.4663 25.2863C78.5392 24.9901 78.5757 24.6756 78.5757 24.343V24.1857C78.5757 23.8576 78.5392 23.5477 78.4663 23.256C78.3979 22.9598 78.2886 22.6978 78.1382 22.4699C77.9923 22.242 77.8055 22.0643 77.5776 21.9367C77.3543 21.8045 77.0877 21.7385 76.7778 21.7385C76.4679 21.7385 76.199 21.8045 75.9712 21.9367C75.7479 22.0643 75.5633 22.242 75.4175 22.4699C75.2716 22.6978 75.1645 22.9598 75.0962 23.256C75.0278 23.5477 74.9936 23.8576 74.9936 24.1857ZM81.3895 24.343V24.1857C81.3895 23.6525 81.467 23.1581 81.622 22.7023C81.7769 22.242 82.0002 21.8433 82.2919 21.506C82.5881 21.1642 82.9481 20.8999 83.372 20.7131C83.8003 20.5217 84.2834 20.426 84.8212 20.426C85.3635 20.426 85.8466 20.5217 86.2704 20.7131C86.6988 20.8999 87.0611 21.1642 87.3573 21.506C87.6535 21.8433 87.8791 22.242 88.0341 22.7023C88.189 23.1581 88.2665 23.6525 88.2665 24.1857V24.343C88.2665 24.8762 88.189 25.3706 88.0341 25.8264C87.8791 26.2821 87.6535 26.6808 87.3573 27.0226C87.0611 27.3599 86.7011 27.6242 86.2772 27.8156C85.8534 28.0025 85.3726 28.0959 84.8349 28.0959C84.2925 28.0959 83.8072 28.0025 83.3788 27.8156C82.955 27.6242 82.5949 27.3599 82.2987 27.0226C82.0025 26.6808 81.7769 26.2821 81.622 25.8264C81.467 25.3706 81.3895 24.8762 81.3895 24.343ZM83.037 24.1857V24.343C83.037 24.6756 83.0712 24.9901 83.1395 25.2863C83.2079 25.5825 83.315 25.8423 83.4608 26.0656C83.6067 26.2889 83.7935 26.4644 84.0214 26.592C84.2492 26.7196 84.5204 26.7834 84.8349 26.7834C85.1402 26.7834 85.4045 26.7196 85.6278 26.592C85.8557 26.4644 86.0425 26.2889 86.1884 26.0656C86.3342 25.8423 86.4413 25.5825 86.5097 25.2863C86.5826 24.9901 86.619 24.6756 86.619 24.343V24.1857C86.619 23.8576 86.5826 23.5477 86.5097 23.256C86.4413 22.9598 86.3319 22.6978 86.1815 22.4699C86.0357 22.242 85.8488 22.0643 85.621 21.9367C85.3977 21.8045 85.1311 21.7385 84.8212 21.7385C84.5113 21.7385 84.2424 21.8045 84.0145 21.9367C83.7912 22.0643 83.6067 22.242 83.4608 22.4699C83.315 22.6978 83.2079 22.9598 83.1395 23.256C83.0712 23.5477 83.037 23.8576 83.037 24.1857ZM93.8968 25.9562C93.8968 25.7922 93.8558 25.6441 93.7737 25.5119C93.6917 25.3752 93.5345 25.2521 93.302 25.1428C93.0742 25.0334 92.7369 24.9331 92.2903 24.842C91.8984 24.7554 91.5384 24.6529 91.2102 24.5344C90.8867 24.4113 90.6087 24.2632 90.3763 24.09C90.1438 23.9168 89.9638 23.7118 89.8362 23.4748C89.7086 23.2378 89.6448 22.9644 89.6448 22.6545C89.6448 22.3537 89.7109 22.0689 89.8431 21.8C89.9752 21.5311 90.1643 21.2941 90.4104 21.0891C90.6565 20.884 90.955 20.7222 91.3059 20.6037C91.6614 20.4852 92.0579 20.426 92.4954 20.426C93.1152 20.426 93.6461 20.5308 94.0882 20.7404C94.5348 20.9455 94.8766 21.2258 95.1136 21.5812C95.3505 21.9321 95.469 22.3286 95.469 22.7707H93.8216C93.8216 22.5747 93.7714 22.3924 93.6712 22.2238C93.5755 22.0506 93.4296 21.9116 93.2337 21.8068C93.0377 21.6974 92.7916 21.6428 92.4954 21.6428C92.2128 21.6428 91.9781 21.6883 91.7913 21.7795C91.609 21.8661 91.4723 21.98 91.3811 22.1213C91.2946 22.2626 91.2513 22.4175 91.2513 22.5861C91.2513 22.7092 91.274 22.8208 91.3196 22.9211C91.3697 23.0168 91.4518 23.1057 91.5657 23.1877C91.6796 23.2652 91.8346 23.3381 92.0306 23.4064C92.2311 23.4748 92.4817 23.5409 92.7825 23.6047C93.3476 23.7232 93.833 23.8758 94.2386 24.0627C94.6487 24.245 94.9632 24.482 95.1819 24.7736C95.4007 25.0607 95.51 25.4253 95.51 25.8674C95.51 26.1955 95.4394 26.4963 95.2981 26.7697C95.1614 27.0386 94.9609 27.2733 94.6966 27.4738C94.4322 27.6698 94.1155 27.8224 93.7464 27.9318C93.3818 28.0412 92.9716 28.0959 92.5159 28.0959C91.846 28.0959 91.2786 27.9774 90.8138 27.7404C90.3489 27.4989 89.9957 27.1913 89.7542 26.8176C89.5172 26.4393 89.3987 26.0474 89.3987 25.6418H90.9915C91.0097 25.9471 91.094 26.1909 91.2444 26.3732C91.3994 26.551 91.5908 26.6808 91.8186 26.7629C92.0511 26.8404 92.2903 26.8791 92.5364 26.8791C92.8326 26.8791 93.081 26.8404 93.2815 26.7629C93.4821 26.6808 93.6347 26.5715 93.7395 26.4348C93.8444 26.2935 93.8968 26.134 93.8968 25.9562ZM100.313 28.0959C99.7663 28.0959 99.2718 28.007 98.8298 27.8293C98.3923 27.647 98.0186 27.3941 97.7087 27.0705C97.4033 26.7469 97.1686 26.3664 97.0046 25.9289C96.8405 25.4914 96.7585 25.0197 96.7585 24.5139V24.2404C96.7585 23.6616 96.8428 23.1376 97.0114 22.6682C97.18 22.1988 97.4147 21.7977 97.7155 21.465C98.0163 21.1278 98.3718 20.8703 98.7819 20.6926C99.1921 20.5148 99.6364 20.426 100.115 20.426C100.644 20.426 101.106 20.5148 101.503 20.6926C101.899 20.8703 102.227 21.121 102.487 21.4445C102.751 21.7635 102.947 22.1441 103.075 22.5861C103.207 23.0282 103.273 23.5158 103.273 24.049V24.7531H97.5583V23.5705H101.646V23.4406C101.637 23.1444 101.578 22.8664 101.468 22.6066C101.364 22.3469 101.202 22.1372 100.983 21.9777C100.764 21.8182 100.473 21.7385 100.108 21.7385C99.8347 21.7385 99.5908 21.7977 99.3766 21.9162C99.167 22.0301 98.9916 22.1965 98.8503 22.4152C98.709 22.634 98.5996 22.8983 98.5222 23.2082C98.4492 23.5135 98.4128 23.8576 98.4128 24.2404V24.5139C98.4128 24.8374 98.4561 25.1382 98.5427 25.4162C98.6338 25.6896 98.766 25.9289 98.9391 26.134C99.1123 26.3391 99.322 26.5008 99.5681 26.6193C99.8141 26.7333 100.094 26.7902 100.409 26.7902C100.805 26.7902 101.159 26.7105 101.468 26.551C101.778 26.3915 102.047 26.1659 102.275 25.8742L103.143 26.715C102.984 26.9474 102.776 27.1708 102.521 27.3849C102.266 27.5946 101.954 27.7655 101.585 27.8976C101.22 28.0298 100.796 28.0959 100.313 28.0959Z" fill="#65558F"/>
</g>
</g>
<defs>
<filter id="filter0_dd_65_1456" x="0" y="0" width="127.398" height="53.9184" filterUnits="userSpaceOnUse" color-interpolation-filters="sRGB">
<feFlood flood-opacity="0" result="BackgroundImageFix"/>
<feColorMatrix in="SourceAlpha" type="matrix" values="0 0 0 0 0 0 0 0 0 0 0 0 0 0 0 0 0 0 127 0" result="hardAlpha"/>
<feOffset dy="1"/>
<feGaussianBlur stdDeviation="1.5"/>
<feColorMatrix type="matrix" values="0 0 0 0 0 0 0 0 0 0 0 0 0 0 0 0 0 0 0.3 0"/>
<feBlend mode="normal" in2="BackgroundImageFix" result="effect1_dropShadow_65_1456"/>
<feColorMatrix in="SourceAlpha" type="matrix" values="0 0 0 0 0 0 0 0 0 0 0 0 0 0 0 0 0 0 127 0" result="hardAlpha"/>
<feMorphology radius="3" operator="dilate" in="SourceAlpha" result="effect2_dropShadow_65_1456"/>
<feOffset dy="4"/>
<feGaussianBlur stdDeviation="4"/>
<feColorMatrix type="matrix" values="0 0 0 0 0 0 0 0 0 0 0 0 0 0 0 0 0 0 0.15 0"/>
<feBlend mode="normal" in2="effect1_dropShadow_65_1456" result="effect2_dropShadow_65_1456"/>
<feBlend mode="normal" in="SourceGraphic" in2="effect2_dropShadow_65_1456" result="shape"/>
</filter>
<clipPath id="clip0_65_1456">
<rect x="11" y="7" width="105.398" height="31.9184" rx="15.9592" fill="white"/>
</clipPath>
<clipPath id="clip1_65_1456">
<rect width="24" height="24" fill="white" transform="translate(19.1989 10.9592)"/>
</clipPath>
</defs>
</svg>
