<svg width="35" height="35" viewBox="0 0 35 35" fill="none" xmlns="http://www.w3.org/2000/svg">
<path fill-rule="evenodd" clip-rule="evenodd" d="M7.69188 14.7673C7.29163 15.6376 7.29163 16.6276 7.29163 18.6077V24.7916C7.29163 27.5414 7.29163 28.9164 8.1459 29.7706C8.97165 30.5964 10.2839 30.624 12.8541 30.6249V23.3333C12.8541 21.9756 13.9548 20.875 15.3125 20.875H19.6875C21.0452 20.875 22.1458 21.9756 22.1458 23.3333V30.6249C24.716 30.624 26.0283 30.5964 26.854 29.7706C27.7083 28.9164 27.7083 27.5414 27.7083 24.7916V18.6077C27.7083 16.6276 27.7083 15.6376 27.308 14.7673C26.9078 13.8971 26.1561 13.2528 24.6527 11.9642L23.1944 10.7142C20.477 8.38503 19.1184 7.22046 17.5 7.22046C15.8815 7.22046 14.5229 8.38503 11.8055 10.7142L10.3472 11.9642C8.84383 13.2528 8.09214 13.8971 7.69188 14.7673ZM20.1458 30.6249V23.3333C20.1458 23.0802 19.9406 22.875 19.6875 22.875H15.3125C15.0593 22.875 14.8541 23.0802 14.8541 23.3333V30.6249H20.1458Z" fill="#222222"/>
</svg>
