<svg width="26" height="40" viewBox="0 0 26 40" fill="none" xmlns="http://www.w3.org/2000/svg">
<path d="M13 40C12.5722 40 12.2056 39.8667 11.9 39.6C11.5945 39.3333 11.3653 38.9833 11.2125 38.55C10.632 36.6833 9.89863 34.9333 9.01252 33.3C8.15697 31.6667 6.95002 29.75 5.39169 27.55C3.83335 25.35 2.5653 23.25 1.58752 21.25C0.640298 19.25 0.166687 16.8333 0.166687 14C0.166687 10.1 1.40419 6.8 3.87919 4.1C6.38474 1.36667 9.42502 0 13 0C16.575 0 19.6 1.36667 22.075 4.1C24.5806 6.8 25.8334 10.1 25.8334 14C25.8334 17.0333 25.2986 19.5667 24.2292 21.6C23.1903 23.6 21.9834 25.5833 20.6084 27.55C18.9584 29.95 17.7056 31.95 16.85 33.55C16.025 35.1167 15.3375 36.7833 14.7875 38.55C14.6347 39.0167 14.3903 39.3833 14.0542 39.65C13.7486 39.8833 13.3972 40 13 40ZM13 32.85C13.5195 31.7167 14.1 30.6 14.7417 29.5C15.4139 28.4 16.3917 26.9333 17.675 25.1C18.9889 23.2333 20.0584 21.5167 20.8834 19.95C21.7389 18.35 22.1667 16.3667 22.1667 14C22.1667 11.2333 21.2653 8.88333 19.4625 6.95C17.6903 4.98333 15.5361 4 13 4C10.4639 4 8.29446 4.98333 6.49169 6.95C4.71947 8.88333 3.83335 11.2333 3.83335 14C3.83335 16.3667 4.24585 18.35 5.07085 19.95C5.92641 21.5167 7.01113 23.2333 8.32502 25.1C9.60835 26.9333 10.5709 28.4 11.2125 29.5C11.8847 30.6 12.4806 31.7167 13 32.85ZM13 19C14.2834 19 15.3681 18.5167 16.2542 17.55C17.1403 16.5833 17.5834 15.4 17.5834 14C17.5834 12.6 17.1403 11.4167 16.2542 10.45C15.3681 9.48333 14.2834 9 13 9C11.7167 9 10.632 9.48333 9.74585 10.45C8.85974 11.4167 8.41669 12.6 8.41669 14C8.41669 15.4 8.85974 16.5833 9.74585 17.55C10.632 18.5167 11.7167 19 13 19Z" fill="#1D1B20"/>
</svg>
