<svg width="53" height="53" viewBox="0 0 53 53" fill="none" xmlns="http://www.w3.org/2000/svg">
<path d="M20.4271 48.5833L19.5438 41.5167C19.0653 41.3326 18.6144 41.1118 18.1912 40.8542C17.7679 40.5965 17.3538 40.3205 16.949 40.026L10.3792 42.7865L4.30627 32.2969L9.99273 27.9906C9.95593 27.733 9.93752 27.4846 9.93752 27.2453V25.7547C9.93752 25.5155 9.95593 25.267 9.99273 25.0094L4.30627 20.7031L10.3792 10.2135L16.949 12.974C17.3538 12.6795 17.7771 12.4035 18.2188 12.1458C18.6604 11.8882 19.1021 11.6674 19.5438 11.4833L20.4271 4.41667H32.5729L33.4563 11.4833C33.9347 11.6674 34.3856 11.8882 34.8089 12.1458C35.2321 12.4035 35.6462 12.6795 36.0511 12.974L42.6209 10.2135L48.6938 20.7031L43.0073 25.0094C43.0441 25.267 43.0625 25.5155 43.0625 25.7547V27.2453C43.0625 27.4846 43.0257 27.733 42.9521 27.9906L48.6386 32.2969L42.5657 42.7865L36.0511 40.026C35.6462 40.3205 35.2229 40.5965 34.7813 40.8542C34.3396 41.1118 33.8979 41.3326 33.4563 41.5167L32.5729 48.5833H20.4271ZM26.6104 34.2292C28.7452 34.2292 30.567 33.4747 32.0761 31.9656C33.5851 30.4566 34.3396 28.6347 34.3396 26.5C34.3396 24.3653 33.5851 22.5434 32.0761 21.0344C30.567 19.5253 28.7452 18.7708 26.6104 18.7708C24.4389 18.7708 22.6078 19.5253 21.1172 21.0344C19.6266 22.5434 18.8813 24.3653 18.8813 26.5C18.8813 28.6347 19.6266 30.4566 21.1172 31.9656C22.6078 33.4747 24.4389 34.2292 26.6104 34.2292Z" fill="#1D1B20"/>
</svg>
