<svg width="35" height="35" viewBox="0 0 35 35" fill="none" xmlns="http://www.w3.org/2000/svg">
<path d="M4.375 11.8333C4.375 9.00492 4.375 7.5907 5.25368 6.71202C6.13236 5.83334 7.54657 5.83334 10.375 5.83334H24.625C27.4534 5.83334 28.8676 5.83334 29.7463 6.71202C30.625 7.5907 30.625 9.00492 30.625 11.8333V13.4896C30.625 13.5766 30.625 13.6202 30.6223 13.6569C30.5858 14.1512 30.1928 14.5442 29.6986 14.5806C29.6618 14.5833 29.6183 14.5833 29.5313 14.5833H29.1667C27.5558 14.5833 26.25 15.8892 26.25 17.5V17.5C26.25 19.1108 27.5558 20.4167 29.1667 20.4167H29.5313C29.6183 20.4167 29.6618 20.4167 29.6986 20.4194C30.1928 20.4558 30.5858 20.8488 30.6223 21.3431C30.625 21.3798 30.625 21.4234 30.625 21.5104V23.1667C30.625 25.9951 30.625 27.4093 29.7463 28.288C28.8676 29.1667 27.4534 29.1667 24.625 29.1667H10.375C7.54657 29.1667 6.13236 29.1667 5.25368 28.288C4.375 27.4093 4.375 25.9951 4.375 23.1667V21.5104C4.375 21.4234 4.375 21.3798 4.37771 21.3431C4.41417 20.8488 4.80716 20.4558 5.30144 20.4194C5.33817 20.4167 5.3817 20.4167 5.46875 20.4167H5.83333C7.44416 20.4167 8.75 19.1108 8.75 17.5V17.5C8.75 15.8892 7.44416 14.5833 5.83333 14.5833H5.46875C5.3817 14.5833 5.33817 14.5833 5.30144 14.5806C4.80716 14.5442 4.41417 14.1512 4.37771 13.6569C4.375 13.6202 4.375 13.5766 4.375 13.4896V11.8333Z" stroke="#33363F" stroke-width="2"/>
<path d="M16.8537 15.5875C17.0988 14.9531 17.2214 14.636 17.4206 14.592C17.473 14.5805 17.5271 14.5805 17.5795 14.592C17.7786 14.636 17.9012 14.9531 18.1464 15.5875C18.2859 15.9482 18.3556 16.1286 18.486 16.2513C18.5226 16.2857 18.5623 16.3163 18.6046 16.3428C18.7554 16.4371 18.9436 16.4546 19.3201 16.4896C19.9573 16.5488 20.2759 16.5784 20.3732 16.7669C20.3934 16.806 20.4071 16.8483 20.4138 16.892C20.446 17.1032 20.2118 17.3244 19.7433 17.7667L19.6132 17.8895C19.3942 18.0963 19.2847 18.1997 19.2214 18.3287C19.1834 18.4061 19.1579 18.4895 19.146 18.5755C19.126 18.7188 19.1581 18.8688 19.2223 19.1688L19.2452 19.276C19.3602 19.814 19.4177 20.0829 19.3459 20.2152C19.2814 20.3339 19.1626 20.41 19.0314 20.4165C18.8854 20.4237 18.6795 20.2497 18.2679 19.9016C17.9967 19.6722 17.8611 19.5575 17.7105 19.5127C17.573 19.4718 17.4271 19.4718 17.2895 19.5127C17.139 19.5575 17.0034 19.6722 16.7322 19.9016C16.3205 20.2497 16.1147 20.4237 15.9686 20.4165C15.8374 20.41 15.7187 20.3339 15.6542 20.2152C15.5824 20.0829 15.6399 19.814 15.7549 19.276L15.7778 19.1688C15.842 18.8688 15.874 18.7188 15.8541 18.5755C15.8422 18.4895 15.8167 18.4061 15.7787 18.3287C15.7154 18.1997 15.6059 18.0963 15.3869 17.8895L15.2568 17.7667C14.7883 17.3244 14.5541 17.1032 14.5863 16.892C14.593 16.8483 14.6067 16.806 14.6268 16.7669C14.7241 16.5784 15.0428 16.5488 15.68 16.4896C16.0565 16.4546 16.2447 16.4371 16.3954 16.3428C16.4377 16.3163 16.4775 16.2857 16.514 16.2513C16.6445 16.1286 16.7142 15.9482 16.8537 15.5875Z" fill="#33363F" stroke="#33363F"/>
</svg>
