<svg width="35" height="35" viewBox="0 0 35 35" fill="none" xmlns="http://www.w3.org/2000/svg">
<path fill-rule="evenodd" clip-rule="evenodd" d="M3.79531 6.71202C2.91663 7.5907 2.91663 9.00492 2.91663 11.8333V13.4896C2.91663 13.5766 2.91663 13.6202 2.91934 13.6569C2.9558 14.1512 3.34879 14.5442 3.84306 14.5806C3.87979 14.5833 3.92332 14.5833 4.01038 14.5833H4.37496C5.98579 14.5833 7.29163 15.8892 7.29163 17.5C7.29163 19.1108 5.98579 20.4167 4.37496 20.4167H4.01038C3.92332 20.4167 3.87979 20.4167 3.84306 20.4194C3.34879 20.4558 2.9558 20.8488 2.91934 21.3431C2.91663 21.3798 2.91663 21.4234 2.91663 21.5104V23.1667C2.91663 25.9951 2.91663 27.4093 3.79531 28.288C4.67399 29.1667 6.0882 29.1667 8.91662 29.1667H26.0833C28.9117 29.1667 30.3259 29.1667 31.2046 28.288C32.0833 27.4093 32.0833 25.9951 32.0833 23.1667V21.5104C32.0833 21.4234 32.0833 21.3798 32.0806 21.3431C32.0441 20.8488 31.6511 20.4558 31.1569 20.4194C31.1201 20.4167 31.0766 20.4167 30.9895 20.4167H30.625C29.0141 20.4167 27.7083 19.1108 27.7083 17.5C27.7083 15.8892 29.0141 14.5833 30.625 14.5833H30.9895C31.0766 14.5833 31.1201 14.5833 31.1569 14.5806C31.6511 14.5442 32.0441 14.1512 32.0806 13.6569C32.0833 13.6202 32.0833 13.5766 32.0833 13.4896V11.8333V11.8333C32.0833 9.00491 32.0833 7.5907 31.2046 6.71202C30.3259 5.83334 28.9117 5.83334 26.0833 5.83334H8.91663C6.0882 5.83334 4.67399 5.83334 3.79531 6.71202ZM17.4205 14.592C17.2213 14.636 17.0988 14.9531 16.8536 15.5875C16.7141 15.9482 16.6444 16.1286 16.514 16.2513C16.4774 16.2857 16.4377 16.3163 16.3954 16.3428C16.2446 16.4371 16.0564 16.4546 15.6799 16.4896C15.0427 16.5488 14.7241 16.5784 14.6268 16.7669C14.6066 16.806 14.5929 16.8483 14.5862 16.892C14.554 17.1032 14.7882 17.3244 15.2567 17.7667L15.2567 17.7667L15.3868 17.8895C15.6058 18.0963 15.7153 18.1997 15.7786 18.3287C15.8166 18.4061 15.8421 18.4895 15.854 18.5755C15.8739 18.7188 15.8419 18.8688 15.7777 19.1688L15.7548 19.276C15.6398 19.814 15.5823 20.0829 15.6541 20.2152C15.7186 20.3339 15.8374 20.41 15.9686 20.4165C16.1146 20.4237 16.3205 20.2497 16.7321 19.9016C17.0033 19.6722 17.1389 19.5575 17.2894 19.5127C17.427 19.4718 17.5729 19.4718 17.7105 19.5127C17.861 19.5575 17.9966 19.6722 18.2678 19.9016C18.6795 20.2497 18.8853 20.4237 19.0314 20.4165C19.1626 20.41 19.2813 20.3339 19.3458 20.2152C19.4176 20.0829 19.3601 19.814 19.2451 19.276L19.2222 19.1688C19.158 18.8688 19.126 18.7188 19.1459 18.5755C19.1578 18.4895 19.1833 18.4061 19.2213 18.3287C19.2846 18.1997 19.3941 18.0963 19.6131 17.8895L19.7432 17.7667C20.2117 17.3244 20.4459 17.1032 20.4137 16.892C20.407 16.8483 20.3933 16.806 20.3732 16.7669C20.2759 16.5784 19.9572 16.5488 19.32 16.4896C18.9435 16.4546 18.7553 16.4371 18.6046 16.3428C18.5623 16.3163 18.5225 16.2857 18.4859 16.2513C18.3555 16.1286 18.2858 15.9482 18.1464 15.5875L18.1463 15.5875C17.9012 14.9531 17.7786 14.636 17.5794 14.592C17.527 14.5805 17.4729 14.5805 17.4205 14.592Z" fill="#222222"/>
</svg>
